<mxfile host="app.diagrams.net" modified="2021-10-27T10:50:11.558Z" agent="5.0 (Macintosh; Intel Mac OS X 10_15_7) AppleWebKit/537.36 (KHTML, like Gecko) Chrome/95.0.4638.54 Safari/537.36" etag="tFgD-bVXS0nxnpaHn5Ns" version="15.0.3" type="github">
  <diagram name="Page-1" id="13e1069c-82ec-6db2-03f1-153e76fe0fe0">
    <mxGraphModel dx="1281" dy="698" grid="0" gridSize="10" guides="1" tooltips="1" connect="1" arrows="1" fold="1" page="1" pageScale="1" pageWidth="1100" pageHeight="850" background="none" math="0" shadow="0">
      <root>
        <mxCell id="0" />
        <mxCell id="1" parent="0" />
        <mxCell id="z9SZuwFWn_q7A0bSs1qe-12" value="玄讯IDE" style="shape=umlLifeline;perimeter=lifelinePerimeter;whiteSpace=wrap;html=1;container=1;collapsible=0;recursiveResize=0;outlineConnect=0;rounded=1;shadow=0;comic=0;labelBackgroundColor=none;strokeWidth=1;fontFamily=Verdana;fontSize=12;align=center;" vertex="1" parent="1">
          <mxGeometry x="240" y="80" width="100" height="580" as="geometry" />
        </mxCell>
        <mxCell id="z9SZuwFWn_q7A0bSs1qe-13" value="" style="html=1;points=[];perimeter=orthogonalPerimeter;rounded=0;shadow=0;comic=0;labelBackgroundColor=none;strokeWidth=1;fontFamily=Verdana;fontSize=12;align=center;" vertex="1" parent="z9SZuwFWn_q7A0bSs1qe-12">
          <mxGeometry x="45" y="84" width="10" height="218" as="geometry" />
        </mxCell>
        <mxCell id="z9SZuwFWn_q7A0bSs1qe-14" value="表单服务器" style="shape=umlLifeline;perimeter=lifelinePerimeter;whiteSpace=wrap;html=1;container=1;collapsible=0;recursiveResize=0;outlineConnect=0;rounded=1;shadow=0;comic=0;labelBackgroundColor=none;strokeWidth=1;fontFamily=Verdana;fontSize=12;align=center;" vertex="1" parent="1">
          <mxGeometry x="690" y="80" width="100" height="580" as="geometry" />
        </mxCell>
        <mxCell id="z9SZuwFWn_q7A0bSs1qe-15" value="" style="html=1;points=[];perimeter=orthogonalPerimeter;rounded=0;shadow=0;comic=0;labelBackgroundColor=none;strokeWidth=1;fontFamily=Verdana;fontSize=12;align=center;" vertex="1" parent="z9SZuwFWn_q7A0bSs1qe-14">
          <mxGeometry x="45" y="120" width="10" height="390" as="geometry" />
        </mxCell>
        <mxCell id="z9SZuwFWn_q7A0bSs1qe-16" value="玄讯APP" style="shape=umlLifeline;perimeter=lifelinePerimeter;whiteSpace=wrap;html=1;container=1;collapsible=0;recursiveResize=0;outlineConnect=0;rounded=1;shadow=0;comic=0;labelBackgroundColor=none;strokeWidth=1;fontFamily=Verdana;fontSize=12;align=center;" vertex="1" parent="1">
          <mxGeometry x="470" y="80" width="100" height="580" as="geometry" />
        </mxCell>
        <mxCell id="z9SZuwFWn_q7A0bSs1qe-17" value="实施开发人员" style="shape=umlLifeline;perimeter=lifelinePerimeter;whiteSpace=wrap;html=1;container=1;collapsible=0;recursiveResize=0;outlineConnect=0;rounded=1;shadow=0;comic=0;labelBackgroundColor=none;strokeWidth=1;fontFamily=Verdana;fontSize=12;align=center;" vertex="1" parent="1">
          <mxGeometry x="100" y="80" width="100" height="580" as="geometry" />
        </mxCell>
        <mxCell id="z9SZuwFWn_q7A0bSs1qe-18" value="" style="html=1;points=[];perimeter=orthogonalPerimeter;rounded=0;shadow=0;comic=0;labelBackgroundColor=none;strokeWidth=1;fontFamily=Verdana;fontSize=12;align=center;" vertex="1" parent="z9SZuwFWn_q7A0bSs1qe-17">
          <mxGeometry x="45" y="81" width="10" height="481" as="geometry" />
        </mxCell>
        <mxCell id="z9SZuwFWn_q7A0bSs1qe-19" value="" style="html=1;points=[];perimeter=orthogonalPerimeter;rounded=0;shadow=0;comic=0;labelBackgroundColor=none;strokeWidth=1;fontFamily=Verdana;fontSize=12;align=center;" vertex="1" parent="1">
          <mxGeometry x="515" y="400" width="10" height="244" as="geometry" />
        </mxCell>
        <mxCell id="z9SZuwFWn_q7A0bSs1qe-20" value="请求表单数据" style="html=1;verticalAlign=bottom;endArrow=block;labelBackgroundColor=none;fontFamily=Verdana;fontSize=12;edgeStyle=elbowEdgeStyle;elbow=vertical;entryX=0.1;entryY=0.641;entryDx=0;entryDy=0;entryPerimeter=0;" edge="1" parent="1">
          <mxGeometry relative="1" as="geometry">
            <mxPoint x="525" y="496" as="sourcePoint" />
            <mxPoint x="736" y="495.99" as="targetPoint" />
            <Array as="points">
              <mxPoint x="590" y="496" />
            </Array>
          </mxGeometry>
        </mxCell>
        <mxCell id="z9SZuwFWn_q7A0bSs1qe-21" value="返回表单数据" style="html=1;verticalAlign=bottom;endArrow=open;dashed=1;endSize=8;labelBackgroundColor=none;fontFamily=Verdana;fontSize=12;edgeStyle=elbowEdgeStyle;elbow=vertical;" edge="1" parent="1">
          <mxGeometry relative="1" as="geometry">
            <mxPoint x="525" y="526" as="targetPoint" />
            <Array as="points">
              <mxPoint x="600" y="526" />
              <mxPoint x="630" y="526" />
            </Array>
            <mxPoint x="730" y="526" as="sourcePoint" />
          </mxGeometry>
        </mxCell>
        <mxCell id="z9SZuwFWn_q7A0bSs1qe-22" value="登录" style="html=1;verticalAlign=bottom;endArrow=block;entryX=0;entryY=0;labelBackgroundColor=none;fontFamily=Verdana;fontSize=12;edgeStyle=elbowEdgeStyle;elbow=vertical;" edge="1" parent="1" source="z9SZuwFWn_q7A0bSs1qe-18" target="z9SZuwFWn_q7A0bSs1qe-13">
          <mxGeometry relative="1" as="geometry">
            <mxPoint x="220" y="190" as="sourcePoint" />
          </mxGeometry>
        </mxCell>
        <mxCell id="z9SZuwFWn_q7A0bSs1qe-23" value="" style="endArrow=classic;html=1;" edge="1" parent="1">
          <mxGeometry width="50" height="50" relative="1" as="geometry">
            <mxPoint x="300" y="330" as="sourcePoint" />
            <mxPoint x="736.1300000000001" y="330" as="targetPoint" />
            <Array as="points">
              <mxPoint x="598.88" y="330" />
              <mxPoint x="718.88" y="330" />
              <mxPoint x="728.88" y="330" />
            </Array>
          </mxGeometry>
        </mxCell>
        <mxCell id="z9SZuwFWn_q7A0bSs1qe-24" value="保存到表单服务器" style="text;html=1;align=center;verticalAlign=middle;resizable=0;points=[];autosize=1;strokeColor=none;" vertex="1" parent="1">
          <mxGeometry x="370" y="310" width="110" height="20" as="geometry" />
        </mxCell>
        <mxCell id="z9SZuwFWn_q7A0bSs1qe-25" value="" style="endArrow=classic;html=1;exitX=1;exitY=0.589;exitDx=0;exitDy=0;exitPerimeter=0;entryX=0;entryY=0.433;entryDx=0;entryDy=0;entryPerimeter=0;" edge="1" parent="1">
          <mxGeometry width="50" height="50" relative="1" as="geometry">
            <mxPoint x="155" y="407.2199999999998" as="sourcePoint" />
            <mxPoint x="515" y="406" as="targetPoint" />
            <Array as="points">
              <mxPoint x="300" y="406.06" />
              <mxPoint x="380" y="406.06" />
              <mxPoint x="400" y="406.06" />
            </Array>
          </mxGeometry>
        </mxCell>
        <mxCell id="z9SZuwFWn_q7A0bSs1qe-26" value="登录" style="text;html=1;align=center;verticalAlign=middle;resizable=0;points=[];autosize=1;strokeColor=none;" vertex="1" parent="1">
          <mxGeometry x="330" y="386" width="40" height="20" as="geometry" />
        </mxCell>
        <mxCell id="z9SZuwFWn_q7A0bSs1qe-27" value="" style="html=1;points=[];perimeter=orthogonalPerimeter;rounded=0;shadow=0;comic=0;labelBackgroundColor=none;strokeWidth=1;fontFamily=Verdana;fontSize=12;align=center;" vertex="1" parent="1">
          <mxGeometry x="520" y="571" width="10" height="40" as="geometry" />
        </mxCell>
        <mxCell id="z9SZuwFWn_q7A0bSs1qe-28" value="根据表单数据渲染页面" style="html=1;verticalAlign=bottom;endArrow=block;labelBackgroundColor=none;fontFamily=Verdana;fontSize=12;elbow=vertical;edgeStyle=orthogonalEdgeStyle;curved=1;entryX=1;entryY=0.286;entryPerimeter=0;exitX=1.038;exitY=0.345;exitPerimeter=0;" edge="1" parent="1">
          <mxGeometry x="0.1872" y="60" relative="1" as="geometry">
            <mxPoint x="525.3333333333335" y="552" as="sourcePoint" />
            <mxPoint x="530.3333333333335" y="590.3333333333335" as="targetPoint" />
            <Array as="points">
              <mxPoint x="580" y="552" />
              <mxPoint x="580" y="590" />
            </Array>
            <mxPoint as="offset" />
          </mxGeometry>
        </mxCell>
        <mxCell id="z9SZuwFWn_q7A0bSs1qe-29" value="return" style="html=1;verticalAlign=bottom;endArrow=open;dashed=1;endSize=8;labelBackgroundColor=none;fontFamily=Verdana;fontSize=12;edgeStyle=elbowEdgeStyle;elbow=vertical;" edge="1" parent="1">
          <mxGeometry relative="1" as="geometry">
            <mxPoint x="156" y="636" as="targetPoint" />
            <Array as="points">
              <mxPoint x="381" y="636" />
              <mxPoint x="411" y="636" />
            </Array>
            <mxPoint x="511" y="636" as="sourcePoint" />
          </mxGeometry>
        </mxCell>
        <mxCell id="z9SZuwFWn_q7A0bSs1qe-30" value="登录成功" style="html=1;verticalAlign=bottom;endArrow=open;dashed=1;endSize=8;labelBackgroundColor=none;fontFamily=Verdana;fontSize=12;edgeStyle=elbowEdgeStyle;elbow=vertical;" edge="1" parent="1">
          <mxGeometry x="-0.0648" relative="1" as="geometry">
            <mxPoint x="157" y="433" as="targetPoint" />
            <Array as="points">
              <mxPoint x="382" y="433" />
              <mxPoint x="412" y="433" />
            </Array>
            <mxPoint x="512" y="433" as="sourcePoint" />
            <mxPoint as="offset" />
          </mxGeometry>
        </mxCell>
        <mxCell id="z9SZuwFWn_q7A0bSs1qe-31" value="" style="endArrow=classic;html=1;exitX=1;exitY=0.589;exitDx=0;exitDy=0;exitPerimeter=0;entryX=0;entryY=0.433;entryDx=0;entryDy=0;entryPerimeter=0;" edge="1" parent="1">
          <mxGeometry width="50" height="50" relative="1" as="geometry">
            <mxPoint x="153" y="481.2199999999998" as="sourcePoint" />
            <mxPoint x="513" y="480" as="targetPoint" />
            <Array as="points">
              <mxPoint x="298" y="480.06" />
              <mxPoint x="378" y="480.06" />
              <mxPoint x="398" y="480.06" />
            </Array>
          </mxGeometry>
        </mxCell>
        <mxCell id="z9SZuwFWn_q7A0bSs1qe-32" value="更新表单" style="text;html=1;align=center;verticalAlign=middle;resizable=0;points=[];autosize=1;strokeColor=none;" vertex="1" parent="1">
          <mxGeometry x="319" y="461" width="58" height="18" as="geometry" />
        </mxCell>
        <mxCell id="z9SZuwFWn_q7A0bSs1qe-33" value="登录成功" style="html=1;verticalAlign=bottom;endArrow=open;dashed=1;endSize=8;labelBackgroundColor=none;fontFamily=Verdana;fontSize=12;edgeStyle=elbowEdgeStyle;elbow=vertical;" edge="1" parent="1">
          <mxGeometry x="-0.0648" relative="1" as="geometry">
            <mxPoint x="153" y="189" as="targetPoint" />
            <Array as="points">
              <mxPoint x="153" y="189" />
              <mxPoint x="183" y="189" />
            </Array>
            <mxPoint x="283" y="189" as="sourcePoint" />
            <mxPoint as="offset" />
          </mxGeometry>
        </mxCell>
        <mxCell id="z9SZuwFWn_q7A0bSs1qe-34" value="编辑表单" style="html=1;verticalAlign=bottom;endArrow=block;entryX=0;entryY=0;labelBackgroundColor=none;fontFamily=Verdana;fontSize=12;edgeStyle=elbowEdgeStyle;elbow=vertical;" edge="1" parent="1">
          <mxGeometry relative="1" as="geometry">
            <mxPoint x="157" y="240" as="sourcePoint" />
            <mxPoint x="287" y="240.0000000000001" as="targetPoint" />
          </mxGeometry>
        </mxCell>
        <mxCell id="z9SZuwFWn_q7A0bSs1qe-35" value="编辑完成" style="html=1;verticalAlign=bottom;endArrow=open;dashed=1;endSize=8;labelBackgroundColor=none;fontFamily=Verdana;fontSize=12;edgeStyle=elbowEdgeStyle;elbow=horizontal;" edge="1" parent="1">
          <mxGeometry x="-0.0648" relative="1" as="geometry">
            <mxPoint x="155" y="269" as="targetPoint" />
            <Array as="points">
              <mxPoint x="155" y="269" />
              <mxPoint x="185" y="269" />
            </Array>
            <mxPoint x="285" y="269" as="sourcePoint" />
            <mxPoint as="offset" />
          </mxGeometry>
        </mxCell>
        <mxCell id="z9SZuwFWn_q7A0bSs1qe-36" value="保存表单" style="html=1;verticalAlign=bottom;endArrow=block;entryX=0;entryY=0;labelBackgroundColor=none;fontFamily=Verdana;fontSize=12;edgeStyle=elbowEdgeStyle;elbow=vertical;" edge="1" parent="1">
          <mxGeometry relative="1" as="geometry">
            <mxPoint x="157" y="310" as="sourcePoint" />
            <mxPoint x="287" y="310.0000000000001" as="targetPoint" />
          </mxGeometry>
        </mxCell>
        <mxCell id="z9SZuwFWn_q7A0bSs1qe-37" value="保存完成" style="html=1;verticalAlign=bottom;endArrow=open;dashed=1;endSize=8;labelBackgroundColor=none;fontFamily=Verdana;fontSize=12;edgeStyle=elbowEdgeStyle;elbow=horizontal;" edge="1" parent="1">
          <mxGeometry x="-0.0648" relative="1" as="geometry">
            <mxPoint x="155" y="366" as="targetPoint" />
            <Array as="points">
              <mxPoint x="155" y="366" />
              <mxPoint x="185" y="366" />
            </Array>
            <mxPoint x="285" y="366" as="sourcePoint" />
            <mxPoint as="offset" />
          </mxGeometry>
        </mxCell>
        <mxCell id="z9SZuwFWn_q7A0bSs1qe-38" value="保存成功" style="html=1;verticalAlign=bottom;endArrow=open;dashed=1;endSize=8;labelBackgroundColor=none;fontFamily=Verdana;fontSize=12;edgeStyle=elbowEdgeStyle;elbow=horizontal;" edge="1" parent="1">
          <mxGeometry x="0.4633" relative="1" as="geometry">
            <mxPoint x="298" y="351" as="targetPoint" />
            <Array as="points">
              <mxPoint x="298" y="351" />
              <mxPoint x="328" y="351" />
            </Array>
            <mxPoint x="734" y="351" as="sourcePoint" />
            <mxPoint as="offset" />
          </mxGeometry>
        </mxCell>
      </root>
    </mxGraphModel>
  </diagram>
</mxfile>
